# xmcd
#
# Track frame offsets: 
#        150
#        17268
#        38381
#        60622
#        78391
#        93094
#        108830
#        129588
#        147962
#        173096
#        187731
#        216734
#        245541
#        264451
#        281965
#
# Disc length: 4099 seconds
#
# Revision: 0
# Processed by: cddbd v1.5.2PL0 Copyright (c) Steve Scherf et al.
# Submitted via: ExactAudioCopy v0.99pb4
#
DISCID=c710010f
DTITLE=Son of 1000 Blues - Son of 1000 Blues
DYEAR=2009
DGENRE=Blues
TTITLE0=Real
TTITLE1=Last Days on Earth
TTITLE2=Believe
TTITLE3=Home
TTITLE4=Murder
TTITLE5=A 1000 Blues
TTITLE6=White and Black 
TTITLE7=Cant Shake this Feeling
TTITLE8=How Big is Your Sorrow?
TTITLE9=Give Me Some of That
TTITLE10=Psychedelic Sexy Flower
TTITLE11=Moon
TTITLE12=Amandla
TTITLE13=Sawubona
TTITLE14=Sone (I Dreamt)
EXTD=
EXTT0=Real
EXTT1=
EXTT2=
EXTT3=
EXTT4=
EXTT5=
EXTT6=
EXTT7=
EXTT8=
EXTT9=
EXTT10=
EXTT11=
EXTT12=
EXTT13=
EXTT14=
PLAYORDER=
